<svg xmlns="http://www.w3.org/2000/svg" xmlns:xlink="http://www.w3.org/1999/xlink" width="20" height="20" viewBox="0 0 20 20" fill="none"><defs><rect id="path_0" x="0" y="0" width="20" height="20" /></defs><g opacity="1" transform="translate(0 0)  rotate(0 10 10)"><mask id="bg-mask-0" fill="white"><use xlink:href="#path_0"></use></mask><g mask="url(#bg-mask-0)" ><path id="路径 1" fill-rule="evenodd" style="fill:#2A82E4" transform="translate(8.2421875 6.58248046875)  rotate(0 1.7578125 1.7578125)" opacity="1" d="M1.76,3.52C2.73,3.52 3.52,2.73 3.52,1.76C3.52,0.79 2.73,0 1.76,0C0.79,0 0,0.79 0,1.76C0,2.73 0.79,3.52 1.76,3.52Z " /><path id="分组 1" fill-rule="evenodd" style="fill:#2A82E4" transform="translate(4.1015625 2.441816406249999)  rotate(0 5.8984375 7.669736328125)" opacity="1" d="M5.9 0C4.32 0 2.84 0.61 1.73 1.73C0.61 2.84 0 4.32 0 5.9C0 6.98 0.3 8.05 0.88 8.98L0.88 8.99L4.25 14.24C4.38 14.55 4.59 14.81 4.86 15.01C5.17 15.23 5.52 15.34 5.9 15.34C6.27 15.34 6.62 15.23 6.93 15.01C7.2 14.82 7.41 14.56 7.55 14.25L10.91 9L10.91 8.99C11.49 8.06 11.8 6.99 11.8 5.9C11.8 4.32 11.18 2.84 10.07 1.73C8.96 0.61 7.47 0 5.9 0Z M1.25 5.9C1.25 6.75 1.49 7.59 1.94 8.32L5.37 13.67L5.39 13.73C5.47 13.95 5.67 14.09 5.9 14.09C6.12 14.09 6.32 13.95 6.41 13.74L6.43 13.68L9.85 8.33C10.31 7.6 10.55 6.76 10.55 5.9C10.55 4.66 10.06 3.49 9.19 2.61C8.31 1.73 7.14 1.25 5.9 1.25C4.66 1.25 3.49 1.73 2.61 2.61C1.73 3.49 1.25 4.66 1.25 5.9Z " /></g></g></svg>