<?xml version="1.0" standalone="no"?><!DOCTYPE svg PUBLIC "-//W3C//DTD SVG 1.1//EN" "http://www.w3.org/Graphics/SVG/1.1/DTD/svg11.dtd"><svg t="1656000398437" class="icon" viewBox="0 0 1024 1024" version="1.1" xmlns="http://www.w3.org/2000/svg" p-id="5194" xmlns:xlink="http://www.w3.org/1999/xlink" width="200" height="200"><defs><style type="text/css">@font-face { font-family: feedback-iconfont; src: url("//at.alicdn.com/t/font_1031158_u69w8yhxdu.woff2?t=1630033759944") format("woff2"), url("//at.alicdn.com/t/font_1031158_u69w8yhxdu.woff?t=1630033759944") format("woff"), url("//at.alicdn.com/t/font_1031158_u69w8yhxdu.ttf?t=1630033759944") format("truetype"); }
</style></defs><path d="M1023.9 317.4c-0.3-76.2-30.2-147.7-84.1-201.6-54.2-54.2-126.3-84-203-84-88.9 0-171.4 40.8-225.3 109-53.9-68.3-136.4-109-225.3-109-61.4 0-120 19.1-169.4 55.3-48.4 35.4-84 84-102.9 140.6-2.7 8-5 16.3-7 24.6-4.1 17.2 6.6 34.4 23.8 38.5 17.2 4.1 34.5-6.6 38.6-23.8 1.5-6.4 3.3-12.8 5.4-19C105 156.9 190 95.8 286.1 95.8c82.8 0 158.4 45.5 197.2 118.6 7.1 13.4 22.7 20 37.3 15.7a32 32 0 0 0 20.8-19.1c39.3-71.1 113.9-115.2 195.3-115.2 123 0 223 100 223 222.8 0 0.8 0 1.6 0.1 2.4-0.6 153.7-125.4 310.8-230.1 415.7-89.9 90-180.9 157.9-218.4 184.6-42.5-30.3-154.7-113.9-256.1-223.2-12-13-32.3-13.7-45.3-1.7s-13.7 32.3-1.7 45.2C341 884.8 487.6 982.8 493.8 986.9c5.4 3.6 11.5 5.3 17.7 5.3 6.2 0 12.4-1.8 17.8-5.4 5-3.3 124.1-83.3 245.1-204.2 71.6-71.6 128.8-142.7 170-211.3 52.8-88 79.6-172.7 79.6-251.5 0-0.8 0-1.6-0.1-2.4z m-830.2 309C144 563.2 108 501.8 86.6 443.9c-6.1-16.6-24.5-25.1-41.1-19-16.6 6.1-25.1 24.5-19 41.1 23.7 64.1 63 131.4 116.8 199.9 6.3 8 15.7 12.2 25.2 12.2 6.9 0 13.9-2.2 19.8-6.8 13.9-10.9 16.4-31 5.4-44.9zM38.9 400.9c17.5-2.5 29.7-18.7 27.2-36.2-1-6.8-1.7-13.7-2.2-20.4-1.3-17.6-16.7-30.8-34.3-29.5C12 316.1-1.2 331.5 0.1 349.1c0.6 8.1 1.5 16.4 2.7 24.5 2.3 16 16 27.5 31.7 27.5 1.4 0.1 2.9 0 4.4-0.2z" fill="" p-id="5195"></path></svg>