<?xml version="1.0" standalone="no"?><!DOCTYPE svg PUBLIC "-//W3C//DTD SVG 1.1//EN" "http://www.w3.org/Graphics/SVG/1.1/DTD/svg11.dtd"><svg t="1673493133305" class="icon" viewBox="0 0 1024 1024" version="1.1" xmlns="http://www.w3.org/2000/svg" p-id="22871" xmlns:xlink="http://www.w3.org/1999/xlink" ><path d="M543.6 255.6h-255c-17.4 0-31.5 14.1-31.5 31.5s14.1 31.5 31.5 31.5h255c17.4 0 31.5-14.1 31.5-31.5s-14.1-31.5-31.5-31.5zM418 446.1H288.6c-17.4 0-31.5 14.1-31.5 31.5s14.1 31.5 31.5 31.5H418c17.4 0 31.5-14.1 31.5-31.5s-14.1-31.5-31.5-31.5z"  p-id="22872" data-spm-anchor-id="a313x.7781069.0.i142" class="selected"></path><path d="M895 193.5H766V129c0-34.8-28.3-63-63-63H129c-34.8 0-63 28.3-63 63v640c0 34.8 28.3 63 63 63h129v64.5c0 34.8 28.3 63 63 63h574c34.8 0 63-28.3 63-63v-640c0-34.7-28.3-63-63-63zM130 768.1V130h572v638.1H130z m764 127.5H322v-63.5h381c34.8 0 63-28.3 63-63V257.5h128v638.1z"  p-id="22873" data-spm-anchor-id="a313x.7781069.0.i141" class="selected"></path></svg>